<?xml version="1.0" encoding="utf-8"?>
<!-- Generator: Adobe Illustrator 23.0.2, SVG Export Plug-In . SVG Version: 6.00 Build 0)  -->
<svg version="1.1" id="Layer_1" xmlns="http://www.w3.org/2000/svg" xmlns:xlink="http://www.w3.org/1999/xlink" x="0px" y="0px"
	 viewBox="0 0 64 64" style="enable-background:new 0 0 64 64;" xml:space="preserve">
<style type="text/css">
	.st0{fill:#FFFFFF;}
</style>
<title>1Artboard 70</title>
<path class="st0" d="M47.6,40.5c8-11.9,4.8-28.1-7.1-36.1S12.4-0.4,4.4,11.5s-4.8,28.1,7.1,36.1c8.8,5.9,20.2,5.9,29,0l15,15
	c2,1.9,5.2,1.9,7.1-0.1c1.9-1.9,1.9-5,0-6.9L47.6,40.5z M26,42c-8.8,0-16-7.2-16-16s7.2-16,16-16s16,7.2,16,16S34.8,42,26,42z"/>
</svg>
